<?xml version="1.0" encoding="UTF-8" standalone="no"?>
<svg
   xmlns:dc="http://purl.org/dc/elements/1.1/"
   xmlns:cc="http://creativecommons.org/ns#"
   xmlns:rdf="http://www.w3.org/1999/02/22-rdf-syntax-ns#"
   xmlns:svg="http://www.w3.org/2000/svg"
   xmlns="http://www.w3.org/2000/svg"
   xmlns:sodipodi="http://sodipodi.sourceforge.net/DTD/sodipodi-0.dtd"
   xmlns:inkscape="http://www.inkscape.org/namespaces/inkscape"
   width="38mm"
   height="38mm"
   viewBox="0 0 38 38"
   version="1.1"
   id="svg851"
   inkscape:version="1.0.1 (3bc2e813f5, 2020-09-07)"
   sodipodi:docname="exotica.fish.svg">
  <defs
     id="defs845" />
  <sodipodi:namedview
     id="base"
     pagecolor="#ffffff"
     bordercolor="#666666"
     borderopacity="1.0"
     inkscape:pageopacity="0.0"
     inkscape:pageshadow="2"
     inkscape:zoom="2.8"
     inkscape:cx="71.154478"
     inkscape:cy="107.99861"
     inkscape:document-units="mm"
     inkscape:current-layer="layer1"
     inkscape:document-rotation="0"
     showgrid="false"
     inkscape:window-width="1680"
     inkscape:window-height="986"
     inkscape:window-x="0"
     inkscape:window-y="0"
     inkscape:window-maximized="1" />
  <metadata
     id="metadata848">
    <rdf:RDF>
      <cc:Work
         rdf:about="">
        <dc:format>image/svg+xml</dc:format>
        <dc:type
           rdf:resource="http://purl.org/dc/dcmitype/StillImage" />
        <dc:title></dc:title>
      </cc:Work>
    </rdf:RDF>
  </metadata>
  <g
     inkscape:label="Ebene 1"
     inkscape:groupmode="layer"
     id="layer1">
    <path
       style="fill:#000000;fill-opacity:1;stroke-width:0.264583"
       d="m 22.3843,35.587805 c -1.92889,-0.41649 -3.53173,-1.0035 -7.01145,-2.56775 -5.93979,-2.67016 -8.96139,-5.128374 -12.09526,-9.840074 -1.87672,-2.82161 -2.43169999,-3.9693 -2.20505,-4.55995 0.11788,-0.3072 0.23812,-0.29969 0.73113,0.0456 0.73654,0.51589 1.42898,0.53066 1.61936,0.0345 0.10719,-0.27933 -0.0632,-0.37281 -0.64913,-0.35615 -0.43696,0.0124 -0.98729,-0.17023 -1.22296,-0.4059 -0.39493,-0.39493 -0.32679,-0.51727 0.87005,-1.56208 0.71419,-0.62347 1.89647,-1.78301 2.62728,-2.57676 2.80342,-3.04487 5.87051,-5.5062305 9.66312,-7.7547005 3.6472,-2.162278 9.26041,-4.7263151 9.26041,-4.230033 0,0.09606 -0.30986,0.845841 -0.68858,1.666179 -0.60103,1.301868 -0.76944,1.476068 -1.32444,1.369974 -0.7386,-0.141192 -1.51233,0.393902 -1.31461,0.90915 0.0748,0.19497 -0.0261,0.35449 -0.22424,0.35449 -0.30083,0 -0.68146,0.52932 -0.68146,0.94768 0,0.26246 2.04027,0.0812 2.32833,-0.20685 0.21242,-0.21241 0.3175,-0.22178 0.3175,-0.0283 0,0.39931 -0.64795,0.61039 -1.87372,0.61039 -1.01797,0 -1.03706,0.0179 -1.05694,0.99219 -0.0111,0.5457 -0.0601,1.20055 -0.10888,1.45521 -0.0683,0.3565795 0.10366,0.4712995 0.74785,0.4990495 0.6762,0.0291 0.71615,0.0588 0.20848,0.154981 -0.61865,0.11717 -0.61576,0.1264 0.19398,0.61883 0.4585,0.27883 1.02872,0.42686 1.28947,0.33476 0.71599,-0.2529 1.65725,-1.187661 1.66525,-1.6537405 0.005,-0.27363 0.32294,-0.0773 0.92605,0.5713995 1.0051,1.081031 1.21642,2.271841 0.50756,2.860141 -0.62304,0.51708 -1.05544,1.405 -0.60656,1.24556 0.56054,-0.19911 1.67746,0.48596 2.65583,1.62897 l 0.89732,1.04832 1.42047,-0.77679 c 1.55528,-0.85051 1.98468,-0.99087 1.18806,-0.38833 -0.496,0.37515 -0.49093,0.38887 0.14787,0.40048 0.3638,0.007 0.90661,0.0779 1.20625,0.15836 0.52159,0.14009 0.65317,-0.007 1.39194,-1.55745 0.0559,-0.11729 -0.34552,-0.0264 -0.89204,0.20192 -0.54651,0.22834 -1.04214,0.36669 -1.1014,0.30743 -0.11272,-0.11273 1.69647,-0.81003 2.83483,-1.09259 0.50993,-0.12658 0.57054,-0.10054 0.26458,0.11367 -0.33553,0.23492 -0.31509,0.28333 0.13229,0.31326 0.89608,0.06 1.30695,-0.0527 1.7198,-0.47155 0.35455,-0.35971 0.29811,-0.38399 -0.52917,-0.22772 -0.68284,0.12898 -0.82181,0.10228 -0.52917,-0.10167 0.21828,-0.15212 0.73401,-0.27841 1.14606,-0.28064 l 0.74918,-0.004 -0.5841,0.94509 c -0.46531,0.75289 -0.55152,1.18277 -0.42391,2.1138 0.17589,1.28323 -0.14483,2.44958 -0.81321,2.9573 -0.34994,0.26584 -0.37446,0.44055 -0.12997,0.92605 0.16575,0.32911 0.34144,1.43183 0.39043,2.45047 0.049,1.01865 0.18511,2.06044 0.30249,2.31511 0.18158,0.39398 0.081,0.45835 -0.67481,0.43171 l -0.8882,-0.0313 0.79375,-0.17984 0.79375,-0.17984 -0.89501,-0.47527 c -0.72218,-0.38349 -0.93662,-0.40793 -1.11051,-0.12657 -0.12641,0.20455 -0.0846,0.43195 0.10126,0.55007 0.57023,0.36251 -0.11212,0.21911 -1.02998,-0.21644 -0.49366,-0.23426 -0.84289,-0.51437 -0.77607,-0.62248 0.21261,-0.34401 -0.55643,-1.16062 -0.89559,-0.951 -0.23504,0.14526 -0.19281,0.29721 0.1583,0.56958 0.26337,0.20431 -0.0569,0.13596 -0.71177,-0.15188 -0.65485,-0.28784 -1.45852,-0.52597 -1.78594,-0.52916 -0.32742,-0.003 -0.59531,-0.1319 -0.59531,-0.28601 0,-0.15411 -0.13178,-0.19876 -0.29283,-0.0992 -0.20249,0.12514 -0.2068,0.23415 -0.014,0.35333 0.17843,0.11027 0.19006,0.31276 0.0323,0.56224 -0.45538,0.72008 -0.26039,1.74327 0.53172,2.79015 0.43251,0.57163 0.7897,1.25309 0.79375,1.514369 0.0126,0.814015 -1.18768,1.778205 -2.16343,1.737885 -0.69117,-0.0286 -0.73992,-0.0609 -0.23514,-0.15613 0.57795,-0.109 0.53518,-0.16558 -0.46303,-0.61249 -0.60488,-0.27082 -1.09979,-0.551935 -1.09979,-0.624693 0,-0.0728 0.50601,0.0974 1.12448,0.378133 1.43719,0.65237 1.96302,0.65075 2.3151,-0.007 0.25155,-0.470011 0.20083,-0.529622 -0.45371,-0.533212 -0.40529,-0.0021 -0.90932,-0.113131 -1.12004,-0.246441 -0.24746,-0.15656 0.0269,-0.18738 0.77495,-0.087 l 1.15807,0.155331 -0.569,-0.799091 c -0.42823,-0.6014 -0.84076,-0.83555 -1.66743,-0.94643 -1.24631,-0.16716 -1.90622,-0.002 -1.64979,0.41291 0.10553,0.17075 0.0173,0.22161 -0.22395,0.12905 -0.21897,-0.084 -0.55956,-0.053 -0.75688,0.069 -0.28205,0.17432 -0.22036,0.34516 0.28858,0.79913 l 0.64733,0.577401 -0.66146,-0.426062 c -0.3638,-0.234339 -1.07818,-0.653159 -1.5875,-0.930719 -1.10368,-0.60147 -1.58643,-1.38913 -2.36716,-3.86232 -0.87895,-2.78429 -0.84972,-2.73975 -1.12875,-1.71979 -0.34015,1.24336 -0.93421,1.85209 -1.80745,1.85209 -0.98136,0 -1.78476,-0.71313 -2.23559,-1.98438 -0.25505,-0.71921 -0.37904,-0.87076 -0.38693,-0.47295 -0.016,0.80524 0.96621,3.35584 1.90612,4.94993 0.42856,0.72685 0.84282,1.71352 0.92056,2.1926 0.0777,0.479071 0.17543,0.871053 0.21709,0.871053 0.0417,0 0.63996,-0.241863 1.32957,-0.537464 0.68961,-0.295597 1.38409,-0.483589 1.54329,-0.417759 0.1592,0.0658 0.0573,0.129091 -0.22648,0.140579 -0.40129,0.01619 -0.44538,0.0914 -0.19844,0.338392 0.17463,0.17462 0.3175,0.531812 0.3175,0.793752 0,0.26193 0.14883,0.47807 0.33073,0.4803 0.2395,0.003 0.23015,0.0678 -0.0339,0.235 -0.20054,0.12702 -0.28281,0.36332 -0.18282,0.52512 0.29206,0.47256 1.42844,0.33921 2.00266,-0.23501 0.5816,-0.5816 0.62539,-0.76165 0.3072,-1.26302 -0.16337,-0.25741 -0.32829,-0.21055 -0.69842,0.19844 -0.2665,0.29448 -0.59835,0.53542 -0.73743,0.53542 -0.13909,0 0.0282,-0.23805 0.37173,-0.52899 0.61119,-0.517611 0.61366,-0.537481 0.11478,-0.923313 -0.28042,-0.216879 -0.44559,-0.45858 -0.36705,-0.53713 0.0785,-0.0785 0.52221,0.2116 0.98591,0.644771 0.46371,0.433162 0.89975,0.784922 0.96897,0.781692 0.0692,-0.003 0.21219,0.0431 0.31769,0.10288 0.10551,0.0598 0.0573,0.078 -0.1072,0.0403 -0.39791,-0.0911 -0.29325,4.50846 0.12583,5.53023 0.16802,0.40965 0.30549,0.79661 0.30549,0.8599 0,0.14484 -0.0399,0.139 -2.11667,-0.30941 z m 1.5875,-0.35367 c 0,-0.13692 -0.11906,-0.32255 -0.26458,-0.41248 -0.14552,-0.0899 -0.26458,-0.39462 -0.26458,-0.67709 0,-0.56381 -0.0361,-0.58462 -0.62312,-0.35935 -0.4775,0.18323 -0.27454,0.90415 0.25455,0.90415 0.20271,0 0.35447,0.0893 0.33723,0.19842 -0.0625,0.39579 0.0367,0.59533 0.29592,0.59533 0.14552,0 0.26458,-0.11205 0.26458,-0.24898 z m -0.84666,-1.92061 c 0.17462,-0.17462 0.3175,-0.52627 0.3175,-0.78145 0,-0.43925 -0.0422,-0.43995 -0.79208,-0.0132 -0.43564,0.24789 -0.79283,0.59954 -0.79375,0.78145 -0.002,0.4214 0.85126,0.4303 1.26833,0.0132 z m -0.0132,-1.46734 c 0.1819,-0.23813 0.33073,-0.65508 0.33073,-0.92656 0,-0.45723 -0.0433,-0.46326 -0.58804,-0.0817 -0.32342,0.22653 -0.84269,0.41187 -1.15394,0.41187 -0.46538,0 -0.54276,0.12104 -0.43563,0.68143 0.11145,0.58302 0.23037,0.65736 0.82321,0.5147 0.38111,-0.0917 0.84177,-0.36159 1.02367,-0.59972 z m -6.47814,-2.77922 c -0.59827,-0.646264 -2.71613,-5.416324 -2.71613,-6.117564 0,-0.23698 -0.11906,-0.43088 -0.26458,-0.43088 -0.14553,0 -0.2442,0.0893 -0.21928,0.19844 0.0249,0.10914 -0.0409,0.79375 -0.14631,1.52135 -0.10539,0.72761 -0.25633,1.77547 -0.33542,2.32859 -0.0791,0.55312 -0.3725,1.21872 -0.652,1.47912 -0.49683,0.462871 -0.48591,0.482861 0.48856,0.894604 1.50902,0.63761 1.68835,0.67824 3.09338,0.70076 l 1.30289,0.0209 z m -5.62448,-2.116674 c 10e-4,-0.47294 0.22458,-1.78973 0.49654,-2.9262 0.37131,-1.55163 0.41033,-2.03402 0.15664,-1.93667 -0.18582,0.0713 -0.73005,-0.15972 -1.20941,-0.51338 -1.5379,-1.13463 -2.4461,-0.65518 -2.44225,1.28931 0.002,1.20104 0.70777,2.79992 1.81666,4.11776 0.88724,1.05442 1.17923,1.04681 1.18182,-0.0308 z m 13.96302,-0.79097 c -0.65521,-0.21841 -2.07741,-2.32162 -2.61503,-3.86724 -0.44001,-1.26497 -0.12705,-3.908 0.67839,-5.72925 0.37312,-0.84369 0.64081,-1.57157 0.59486,-1.61752 -0.0459,-0.0459 -0.48245,-0.11694 -0.97001,-0.15777 -0.78429,-0.0657 -0.91257,0.0173 -1.11279,0.71952 -0.3315,1.16264 -0.30351,4.92745 0.0465,6.25765 0.16653,0.63288 0.77455,2.01727 1.35114,3.07644 0.57659,1.05916 0.97561,2.04344 0.8867,2.1873 -0.0889,0.14385 0.27287,0.0543 0.80394,-0.19891 0.93925,-0.44789 0.94842,-0.46618 0.33628,-0.67022 z m 2.34984,-0.31628 c -0.28887,-0.61212 -0.32999,-0.62201 -0.82462,-0.19844 -0.51252,0.43889 -0.51357,0.43467 -0.0679,-0.2725 0.57458,-0.9118 0.57429,-0.91359 -0.17731,-1.10224 -0.71713,-0.17998 -1.38923,-1.40856 -1.71007,-3.12593 -0.22975,-1.22978 0.0989,-3.05394 0.86577,-4.80557 0.2458,-0.56143 0.3834,-1.0843 0.30577,-1.16192 -0.21844,-0.21844 -1.22225,2.29508 -1.49911,3.75374 -0.30381,1.60064 0.2369,4.00763 1.24246,5.53085 0.36906,0.55905 0.6036,1.08388 0.5212,1.16628 -0.276,0.276 0.43275,0.85996 1.04372,0.85996 0.547,0 0.5754,-0.061 0.30014,-0.64423 z m 7.70126,-2.23278 c 0.0245,-1.0759 -0.0666,-1.33912 -0.55018,-1.5889 l -0.57955,-0.29938 0.59531,0.15152 c 0.45892,0.1168 0.59531,0.0383 0.59531,-0.34256 0,-0.7147 -0.52113,-1.12908 -1.41993,-1.12908 -0.94524,0 -0.84008,-0.18027 0.21697,-0.37195 0.9014,-0.16345 1.53952,-0.7276 1.58944,-1.40517 0.0195,-0.26463 0.1195,-0.61714 0.22222,-0.78335 0.34291,-0.55483 -0.0971,-1.17287 -0.70618,-0.99193 -0.50313,0.14947 -0.51767,0.12891 -0.13473,-0.19055 0.47503,-0.39629 0.83968,-1.54872 0.49004,-1.54872 -0.36324,0 -1.36337,1.56164 -1.18499,1.85028 0.0905,0.14651 0.036,0.26639 -0.12123,0.26639 -0.15723,0 -0.42538,0.30618 -0.59588,0.6804 -0.25099,0.55085 -0.23731,0.72641 0.0718,0.92199 0.32142,0.20337 0.31381,0.24223 -0.0481,0.24564 -0.26422,0.002 -0.49092,0.3089 -0.58812,0.79491 -0.19765,0.98827 0.0186,1.58483 0.58335,1.60899 0.39892,0.0171 0.3993,0.0334 0.005,0.19843 -0.53389,0.22326 -0.1941,1.37047 0.40592,1.37047 0.21438,0 0.46253,0.1177 0.55143,0.26155 0.0927,0.14998 -0.0135,0.19434 -0.24897,0.10399 -0.67031,-0.25723 -0.49696,0.83487 0.1847,1.16362 0.32742,0.15791 0.60477,0.29517 0.61632,0.30502 0.0116,0.01 0.0342,-0.56238 0.0504,-1.27161 z m -8.10926,-2.80522 c -0.0322,-0.79564 0.0643,-1.6762 0.21451,-1.95679 0.21078,-0.39384 0.17871,-0.54636 -0.14063,-0.6689 -0.71414,-0.27405 -0.85212,-0.18229 -1.05439,0.70115 -0.27702,1.20998 -0.16098,2.32981 0.31702,3.05933 0.56167,0.85722 0.73228,0.56542 0.66349,-1.13479 z m -8.77249,0.93713 c 0.43793,-0.81829 0.31582,-2.45893 -0.25237,-3.39083 -0.28836,-0.47295 -0.64092,-0.8599 -0.78346,-0.8599 -0.81444,0 -1.08433,2.66487 -0.40328,3.98189 0.46472,0.89867 1.04411,1.0069 1.43911,0.26884 z m 12.45127,-0.96066 c 0.65445,-1.72133 0.0343,-2.66608 -1.21343,-1.84854 -0.86509,0.56683 -1.05171,1.07923 -0.68565,1.88263 0.4126,0.90557 1.54959,0.88516 1.89908,-0.0341 z m -17.91334,-0.75747 c 0.33102,-0.97148 0.34445,-1.38616 0.0787,-2.42801 l -0.32052,-1.25644 -0.47977,1.25627 c -0.41563,1.08831 -0.43592,1.41293 -0.15171,2.42801 0.18043,0.64445 0.36093,1.17174 0.4011,1.17174 0.0402,0 0.25267,-0.52721 0.47223,-1.17157 z m 2.81216,-2.79718 c -0.02,-0.49278 -0.7599,1.32649 -0.75329,1.85208 0.006,0.46932 0.1173,0.31561 0.38349,-0.52917 0.20633,-0.65484 0.37274,-1.25015 0.3698,-1.32291 z m 4.69772,-3.04156 c 0.26233,-0.45528 0.175,-0.6464 -0.63387,-1.38729 -0.63976,-0.586 -0.89607,-1.02005 -0.80591,-1.3648 0.10309,-0.39422 -0.0321,-0.52962 -0.61388,-0.61502 -0.67865,-0.0996 -0.73401,-0.0481 -0.6126,0.5699 0.0814,0.41437 -0.1426,1.29864 -0.57429,2.26689 -0.38928,0.87313 -0.81905,1.87683 -0.95505,2.23046 l -0.24728,0.64296 0.7091,-0.70911 c 0.39001,-0.39 0.78966,-0.7091 0.88811,-0.7091 0.54018,0 1.64053,1.64739 1.93254,2.8933 l 0.32984,1.40727 0.13952,-2.34872 c 0.0767,-1.2918 0.27643,-2.58633 0.44377,-2.87674 z m -14.15249,4.12013 c 0.10402,-0.0111 0.32463,-0.27343 0.49024,-0.58288 0.4989,-0.9322 -0.0717,-1.81861 -1.17077,-1.81861 -0.75929,0 -0.95336,0.12976 -1.2442,0.8319 -0.31425,0.75868 -0.29376,0.87305 0.23283,1.29946 0.31757,0.25715 0.78561,0.42769 1.04008,0.37896 0.25448,-0.0487 0.54779,-0.0977 0.65182,-0.10883 z m -1.32163,-0.87624 c -0.41968,-0.50569 0.0239,-1.05795 0.76554,-0.95309 0.42539,0.0602 0.63154,0.26203 0.63154,0.61846 0,0.63125 -0.96006,0.8612 -1.39708,0.33463 z m -1.38104,-0.31901 c 0,-0.0642 -0.11907,-0.19026 -0.26459,-0.2802 -0.14552,-0.0899 -0.26458,-0.0374 -0.26458,0.11668 0,0.15411 0.11906,0.2802 0.26458,0.2802 0.14552,0 0.26459,-0.0525 0.26459,-0.11668 z m 7.2388,-1.59493 c 0.52946,-0.3593 1.11163,-0.59602 1.2937,-0.52605 0.24378,0.0937 0.33104,-0.31945 0.33104,-1.5674 v -1.69463 l -0.79375,0.39705 c -1.1053,0.55289 -3.30729,2.73984 -3.30729,3.2847 0,0.9228 1.19741,0.97421 2.4763,0.10633 z m 4.63609,-2.01191 c 0.49208,-1.17101 1.06613,-2.30055 1.27567,-2.51009 0.33158,-0.33158 0.27452,-0.38098 -0.44016,-0.38098 -0.45163,0 -1.25513,0.18133 -1.78554,0.40295 -0.73963,0.30904 -0.89181,0.47553 -0.65296,0.71437 0.17778,0.17779 0.31143,1.08351 0.31143,2.1106 0,0.98954 0.0893,1.79761 0.19844,1.79571 0.10914,-0.002 0.60104,-0.96155 1.09312,-2.13256 z m 9.56954,-0.53446 c 0.16302,-0.3046 0.21953,-0.86003 0.1256,-1.23431 l -0.1708,-0.6805 -0.50927,0.83744 c -0.2801,0.46058 -0.64466,0.83743 -0.81014,0.83743 -0.2121,0 -0.20369,0.11709 0.0285,0.39687 0.46131,0.55586 0.98772,0.49403 1.3361,-0.15693 z m -1.34654,-0.49894 c 0.63368,-0.33913 1.12086,-1.69974 0.74367,-2.076941 -0.19339,-0.19339 -0.51266,-0.042 -1.05481,0.500141 -0.4276,0.42761 -0.97666,0.78143 -1.22013,0.78627 -0.35479,0.007 -0.31867,0.1121 0.18195,0.52917 0.72406,0.60319 0.71418,0.60128 1.34932,0.26136 z M 22.88094,3.8312075 c 0.44743,-0.982019 0.24694,-1.012286 -0.63154,-0.09534 -0.69129,0.721543 -0.71074,0.79099 -0.22162,0.79099 0.32221,0 0.66269,-0.277616 0.85316,-0.69565 z m 2.3642,25.9149175 c 0.191,-0.0764 0.4192,-0.067 0.50712,0.0209 0.0879,0.0879 -0.0683,0.15045 -0.34727,0.13897 -0.30822,-0.0127 -0.37092,-0.0754 -0.15985,-0.15985 z M 21.52289,9.9419905 c 0.31857,-0.22313 0.76178,-0.66634 0.98491,-0.98491 0.22313,-0.31857 0.4057,-0.4499 0.4057,-0.29184 0,0.37321 -1.30924,1.6824495 -1.68245,1.6824495 -0.15806,0 -0.0267,-0.18256 0.29184,-0.4056995 z m -1.78439,-0.71134 c 0.0728,-0.0684 0.54901,-0.32652 1.05833,-0.5735 0.67186,-0.32579 0.81711,-0.34477 0.52917,-0.0691 -0.21828,0.20897 -0.69453,0.46704 -1.05833,0.5735 -0.36381,0.10645 -0.60193,0.13755 -0.52917,0.0691 z m 2.31069,-1.29704 c 0.17948,-0.18082 0.39297,-0.26212 0.47443,-0.18066 0.0815,0.0815 -0.0654,0.22941 -0.32631,0.32877 -0.37709,0.14359 -0.40748,0.11319 -0.14812,-0.14811 z m -0.7728,-1.73541 c 0.191,-0.0764 0.4192,-0.067 0.50712,0.0209 0.0879,0.0879 -0.0683,0.15045 -0.34727,0.13896 -0.30822,-0.0127 -0.37092,-0.0754 -0.15985,-0.15985 z"
       id="path4672"
       inkscape:connector-curvature="0" />
  </g>
</svg>
