<?xml version="1.0" encoding="UTF-8" standalone="no"?>
<!-- Created with Inkscape (http://www.inkscape.org/) -->

<svg
   xmlns:dc="http://purl.org/dc/elements/1.1/"
   xmlns:cc="http://creativecommons.org/ns#"
   xmlns:rdf="http://www.w3.org/1999/02/22-rdf-syntax-ns#"
   xmlns:svg="http://www.w3.org/2000/svg"
   xmlns="http://www.w3.org/2000/svg"
   xmlns:sodipodi="http://sodipodi.sourceforge.net/DTD/sodipodi-0.dtd"
   xmlns:inkscape="http://www.inkscape.org/namespaces/inkscape"
   width="35.954762mm"
   height="34.229511mm"
   viewBox="0 0 35.954762 34.229511"
   version="1.1"
   id="svg8"
   inkscape:version="0.92.4 (5da689c313, 2019-01-14)"
   sodipodi:docname="logo.svg">
  <defs
     id="defs2" />
  <sodipodi:namedview
     id="base"
     pagecolor="#ffffff"
     bordercolor="#666666"
     borderopacity="1.0"
     inkscape:pageopacity="0.0"
     inkscape:pageshadow="2"
     inkscape:zoom="1.979899"
     inkscape:cx="-271.0437"
     inkscape:cy="73.94444"
     inkscape:document-units="mm"
     inkscape:current-layer="layer1"
     showgrid="false"
     inkscape:window-width="2498"
     inkscape:window-height="1417"
     inkscape:window-x="54"
     inkscape:window-y="-8"
     inkscape:window-maximized="1"
     fit-margin-top="0"
     fit-margin-left="0"
     fit-margin-right="0"
     fit-margin-bottom="0" />
  <metadata
     id="metadata5">
    <rdf:RDF>
      <cc:Work
         rdf:about="">
        <dc:format>image/svg+xml</dc:format>
        <dc:type
           rdf:resource="http://purl.org/dc/dcmitype/StillImage" />
        <dc:title />
      </cc:Work>
    </rdf:RDF>
  </metadata>
  <g
     inkscape:label="Ebene 1"
     inkscape:groupmode="layer"
     id="layer1"
     transform="translate(-59.165731,-95.161641)">
    <path
       style="fill:#000000;fill-opacity:1;stroke-width:0.26458332"
       d="m 80.525253,128.99728 c -1.92889,-0.41649 -3.53173,-1.00349 -7.011456,-2.56775 -5.939783,-2.67015 -8.961389,-5.12837 -12.095254,-9.84007 -1.876722,-2.82161 -2.431708,-3.9693 -2.205052,-4.55995 0.117882,-0.3072 0.238117,-0.29969 0.731128,0.0456 0.736543,0.51589 1.428978,0.53066 1.619359,0.0345 0.107191,-0.27933 -0.06319,-0.37281 -0.649128,-0.35615 -0.436957,0.0124 -0.987288,-0.17023 -1.222957,-0.4059 -0.394932,-0.39493 -0.326791,-0.51727 0.870043,-1.56208 0.714193,-0.62347 1.896469,-1.78301 2.62728,-2.57676 2.803427,-3.04487 5.870518,-5.50623 9.663122,-7.7547 3.647205,-2.162278 9.260415,-4.726315 9.260415,-4.230033 0,0.09606 -0.30986,0.845841 -0.68858,1.666179 -0.60103,1.301868 -0.76944,1.476068 -1.32444,1.369974 -0.7386,-0.141192 -1.51233,0.393902 -1.31461,0.90915 0.0748,0.19497 -0.0261,0.35449 -0.22424,0.35449 -0.30083,0 -0.68146,0.52932 -0.68146,0.94768 0,0.26246 2.04027,0.0812 2.32833,-0.20685 0.21242,-0.21241 0.3175,-0.22178 0.3175,-0.0283 0,0.39931 -0.64795,0.61039 -1.87372,0.61039 -1.01797,0 -1.03706,0.0179 -1.05694,0.99219 -0.0111,0.5457 -0.0601,1.20055 -0.10888,1.45521 -0.0683,0.35658 0.10366,0.4713 0.74785,0.49905 0.6762,0.0291 0.71615,0.0588 0.20848,0.15498 -0.61865,0.11717 -0.61576,0.1264 0.19398,0.61883 0.4585,0.27883 1.02872,0.42686 1.28947,0.33476 0.71599,-0.2529 1.65725,-1.18766 1.66525,-1.65374 0.005,-0.27363 0.32294,-0.0773 0.92605,0.5714 1.0051,1.08103 1.21642,2.27184 0.50756,2.86014 -0.62304,0.51708 -1.05544,1.405 -0.60656,1.24556 0.56054,-0.19911 1.67746,0.48596 2.65583,1.62897 l 0.89732,1.04832 1.42047,-0.77679 c 1.55528,-0.85051 1.98468,-0.99087 1.18806,-0.38833 -0.496,0.37515 -0.49093,0.38887 0.14787,0.40048 0.3638,0.007 0.90661,0.0779 1.20625,0.15836 0.52159,0.14009 0.65317,-0.007 1.39194,-1.55745 0.0559,-0.11729 -0.34552,-0.0264 -0.89204,0.20192 -0.54651,0.22834 -1.04214,0.36669 -1.1014,0.30743 -0.11272,-0.11273 1.69647,-0.81003 2.83483,-1.09259 0.50993,-0.12658 0.57054,-0.10054 0.26458,0.11367 -0.33553,0.23492 -0.31509,0.28333 0.13229,0.31326 0.89608,0.06 1.30695,-0.0527 1.7198,-0.47155 0.35455,-0.35971 0.29811,-0.38399 -0.52917,-0.22772 -0.68284,0.12898 -0.82181,0.10228 -0.52917,-0.10167 0.21828,-0.15212 0.73401,-0.27841 1.14606,-0.28064 l 0.74918,-0.004 -0.5841,0.94509 c -0.46531,0.75289 -0.55152,1.18277 -0.42391,2.1138 0.17589,1.28323 -0.14483,2.44958 -0.81321,2.9573 -0.34994,0.26584 -0.37446,0.44055 -0.12997,0.92605 0.16575,0.32911 0.34144,1.43183 0.39043,2.45047 0.049,1.01865 0.18511,2.06044 0.30249,2.31511 0.18158,0.39398 0.081,0.45835 -0.67481,0.43171 l -0.8882,-0.0313 0.79375,-0.17984 0.79375,-0.17984 -0.89501,-0.47527 c -0.72218,-0.38349 -0.93662,-0.40793 -1.11051,-0.12657 -0.12641,0.20455 -0.0846,0.43195 0.10126,0.55007 0.57023,0.36251 -0.11212,0.21911 -1.02998,-0.21644 -0.49366,-0.23426 -0.84289,-0.51437 -0.77607,-0.62248 0.21261,-0.34401 -0.55643,-1.16062 -0.89559,-0.951 -0.23504,0.14526 -0.19281,0.29721 0.1583,0.56958 0.26337,0.20431 -0.0569,0.13596 -0.71177,-0.15188 -0.65485,-0.28784 -1.45852,-0.52597 -1.78594,-0.52916 -0.32742,-0.003 -0.59531,-0.1319 -0.59531,-0.28601 0,-0.15411 -0.13178,-0.19876 -0.29283,-0.0992 -0.20249,0.12514 -0.2068,0.23415 -0.014,0.35333 0.17843,0.11027 0.19006,0.31276 0.0323,0.56224 -0.45538,0.72008 -0.26039,1.74327 0.53172,2.79015 0.43251,0.57163 0.7897,1.25309 0.79375,1.51437 0.0126,0.81401 -1.18768,1.7782 -2.16343,1.73788 -0.69117,-0.0286 -0.73992,-0.0609 -0.23514,-0.15613 0.57795,-0.109 0.53518,-0.16558 -0.46303,-0.61249 -0.60488,-0.27082 -1.09979,-0.55193 -1.09979,-0.62469 0,-0.0728 0.50601,0.0974 1.12448,0.37813 1.43719,0.65237 1.96302,0.65075 2.3151,-0.007 0.25155,-0.47001 0.20083,-0.52962 -0.45371,-0.53321 -0.4053,-0.002 -0.90932,-0.11313 -1.12004,-0.24644 -0.24746,-0.15656 0.0269,-0.18738 0.77495,-0.087 l 1.15807,0.15533 -0.569,-0.79909 c -0.42823,-0.6014 -0.84076,-0.83555 -1.66743,-0.94643 -1.24631,-0.16716 -1.90622,-0.002 -1.64979,0.41291 0.10553,0.17075 0.0173,0.22161 -0.22395,0.12905 -0.21897,-0.084 -0.55956,-0.053 -0.75688,0.069 -0.28205,0.17432 -0.22036,0.34516 0.28858,0.79913 l 0.64733,0.5774 -0.66146,-0.42606 c -0.3638,-0.23434 -1.07818,-0.65316 -1.5875,-0.93072 -1.10368,-0.60147 -1.58643,-1.38913 -2.36716,-3.86232 -0.87895,-2.78429 -0.84972,-2.73975 -1.12875,-1.71979 -0.34015,1.24336 -0.93421,1.85209 -1.80745,1.85209 -0.98136,0 -1.784761,-0.71313 -2.235592,-1.98438 -0.255057,-0.71921 -0.379044,-0.87076 -0.386936,-0.47295 -0.01598,0.80524 0.966216,3.35584 1.906128,4.94993 0.42856,0.72685 0.84282,1.71352 0.92056,2.1926 0.0777,0.47907 0.17543,0.87105 0.21709,0.87105 0.0417,0 0.63996,-0.24186 1.32957,-0.53746 0.68961,-0.2956 1.38409,-0.48359 1.54329,-0.41776 0.1592,0.0658 0.0573,0.12909 -0.22648,0.14058 -0.40129,0.0162 -0.44538,0.0914 -0.19844,0.33839 0.17463,0.17462 0.3175,0.53181 0.3175,0.79375 0,0.26193 0.14883,0.47807 0.33073,0.4803 0.2395,0.003 0.23015,0.0678 -0.0339,0.235 -0.20054,0.12702 -0.28281,0.36332 -0.18282,0.52512 0.29206,0.47256 1.42844,0.33921 2.00266,-0.23501 0.5816,-0.5816 0.62539,-0.76165 0.3072,-1.26302 -0.16337,-0.25741 -0.32829,-0.21055 -0.69842,0.19844 -0.2665,0.29448 -0.59835,0.53542 -0.73743,0.53542 -0.13909,0 0.0282,-0.23805 0.37173,-0.52899 0.61119,-0.51761 0.61366,-0.53748 0.11478,-0.92331 -0.28042,-0.21688 -0.44559,-0.45858 -0.36705,-0.53713 0.0785,-0.0785 0.52221,0.2116 0.98591,0.64477 0.46371,0.43316 0.89975,0.78492 0.96897,0.78169 0.0692,-0.003 0.21219,0.0431 0.31769,0.10288 0.10551,0.0598 0.0573,0.078 -0.1072,0.0403 -0.39791,-0.0911 -0.29325,4.50846 0.12583,5.53023 0.16802,0.40965 0.30549,0.79661 0.30549,0.8599 0,0.14484 -0.0399,0.139 -2.11667,-0.30941 z m 1.5875,-0.35366 c 0,-0.13693 -0.11906,-0.32256 -0.26458,-0.41249 -0.14552,-0.0899 -0.26458,-0.39462 -0.26458,-0.67708 0,-0.56382 -0.0361,-0.58463 -0.62312,-0.35936 -0.4775,0.18324 -0.27454,0.90415 0.25455,0.90415 0.20271,0 0.35447,0.0893 0.33723,0.19843 -0.0625,0.39579 0.0367,0.59532 0.29592,0.59532 0.14552,0 0.26458,-0.11204 0.26458,-0.24897 z m -0.84666,-1.92062 c 0.17462,-0.17462 0.3175,-0.52627 0.3175,-0.78144 0,-0.43926 -0.0422,-0.43996 -0.79208,-0.0132 -0.43564,0.24789 -0.79283,0.59954 -0.79375,0.78144 -0.002,0.4214 0.85126,0.4303 1.26833,0.0132 z m -0.0132,-1.46734 c 0.1819,-0.23813 0.33073,-0.65508 0.33073,-0.92656 0,-0.45723 -0.0433,-0.46326 -0.58804,-0.0817 -0.32342,0.22653 -0.84269,0.41187 -1.15394,0.41187 -0.46538,0 -0.54276,0.12104 -0.43563,0.68144 0.11145,0.58301 0.23037,0.65736 0.82321,0.51469 0.38111,-0.0917 0.84177,-0.36159 1.02367,-0.59972 z m -6.47814,-2.77922 c -0.598275,-0.64626 -2.716135,-5.41632 -2.716135,-6.11756 0,-0.23698 -0.119062,-0.43088 -0.264583,-0.43088 -0.145521,0 -0.244195,0.0893 -0.219276,0.19844 0.02492,0.10914 -0.04092,0.79375 -0.146308,1.52135 -0.105389,0.72761 -0.25633,1.77547 -0.335425,2.32859 -0.07909,0.55312 -0.372493,1.21872 -0.651996,1.47912 -0.496829,0.46287 -0.48591,0.48286 0.488555,0.8946 1.509027,0.63762 1.688351,0.67824 3.093383,0.70076 l 1.302895,0.0209 z m -5.624487,-2.11667 c 0.0011,-0.47294 0.224579,-1.78973 0.496542,-2.9262 0.371313,-1.55163 0.410328,-2.03402 0.156638,-1.93667 -0.185812,0.0713 -0.730043,-0.15972 -1.209403,-0.51338 -1.537908,-1.13463 -2.446106,-0.65518 -2.442252,1.28931 0.0024,1.20104 0.707767,2.79992 1.816659,4.11776 0.887237,1.05442 1.179229,1.04681 1.181816,-0.0308 z m 13.963027,-0.79097 c -0.65521,-0.21841 -2.07741,-2.32162 -2.61503,-3.86724 -0.44001,-1.26497 -0.12705,-3.908 0.67839,-5.72925 0.37312,-0.84369 0.64081,-1.57157 0.59486,-1.61752 -0.0459,-0.0459 -0.48245,-0.11694 -0.97001,-0.15777 -0.78429,-0.0657 -0.91257,0.0173 -1.11279,0.71952 -0.3315,1.16264 -0.30351,4.92745 0.0465,6.25765 0.16653,0.63288 0.77455,2.01727 1.35114,3.07644 0.57659,1.05916 0.97561,2.04344 0.8867,2.1873 -0.0889,0.14385 0.27287,0.0543 0.80394,-0.19891 0.93925,-0.44789 0.94842,-0.46618 0.33628,-0.67022 z m 2.34984,-0.31628 c -0.28887,-0.61212 -0.32999,-0.62201 -0.82462,-0.19844 -0.51252,0.43889 -0.51357,0.43467 -0.0679,-0.2725 0.57458,-0.9118 0.57429,-0.91359 -0.17731,-1.10224 -0.71713,-0.17998 -1.38923,-1.40856 -1.71007,-3.12593 -0.22975,-1.22978 0.0989,-3.05394 0.86577,-4.80557 0.2458,-0.56143 0.3834,-1.0843 0.30577,-1.16192 -0.21844,-0.21844 -1.22225,2.29508 -1.49911,3.75374 -0.30381,1.60064 0.2369,4.00763 1.24246,5.53085 0.36906,0.55905 0.6036,1.08388 0.5212,1.16628 -0.276,0.276 0.43275,0.85996 1.04372,0.85996 0.547,0 0.5754,-0.061 0.30014,-0.64423 z m 7.70126,-2.23278 c 0.0245,-1.0759 -0.0666,-1.33912 -0.55018,-1.5889 l -0.57955,-0.29938 0.59531,0.15152 c 0.45892,0.1168 0.59531,0.0383 0.59531,-0.34256 0,-0.7147 -0.52113,-1.12908 -1.41993,-1.12908 -0.94524,0 -0.84008,-0.18027 0.21697,-0.37195 0.9014,-0.16345 1.53952,-0.7276 1.58944,-1.40517 0.0195,-0.26463 0.1195,-0.61714 0.22222,-0.78335 0.34291,-0.55483 -0.0971,-1.17287 -0.70618,-0.99193 -0.50313,0.14947 -0.51767,0.12891 -0.13473,-0.19055 0.47503,-0.39629 0.83968,-1.54872 0.49004,-1.54872 -0.36324,0 -1.36337,1.56164 -1.18499,1.85028 0.0905,0.14651 0.036,0.26639 -0.12123,0.26639 -0.15723,0 -0.42538,0.30618 -0.59588,0.6804 -0.25099,0.55085 -0.23731,0.72641 0.0718,0.92199 0.32142,0.20337 0.31381,0.24223 -0.0481,0.24564 -0.26422,0.002 -0.49092,0.3089 -0.58812,0.79491 -0.19765,0.98827 0.0186,1.58483 0.58335,1.60899 0.39892,0.0171 0.3993,0.0334 0.005,0.19843 -0.53389,0.22326 -0.1941,1.37047 0.40592,1.37047 0.21438,0 0.46253,0.1177 0.55143,0.26155 0.0927,0.14998 -0.0135,0.19434 -0.24897,0.10399 -0.67031,-0.25723 -0.49696,0.83487 0.1847,1.16362 0.32742,0.15791 0.60477,0.29517 0.61632,0.30502 0.0116,0.01 0.0342,-0.56238 0.0504,-1.27161 z m -8.10926,-2.80522 c -0.0322,-0.79564 0.0643,-1.6762 0.21451,-1.95679 0.21078,-0.39384 0.17871,-0.54636 -0.14063,-0.6689 -0.71414,-0.27405 -0.85212,-0.18229 -1.05439,0.70115 -0.27702,1.20998 -0.16098,2.32981 0.31702,3.05933 0.56167,0.85722 0.73228,0.56542 0.66349,-1.13479 z m -8.77249,0.93713 c 0.43793,-0.81829 0.31582,-2.45893 -0.25237,-3.39083 -0.28836,-0.47295 -0.64092,-0.8599 -0.78346,-0.8599 -0.81444,0 -1.084331,2.66487 -0.40328,3.98189 0.46472,0.89867 1.04411,1.0069 1.43911,0.26884 z m 12.45127,-0.96066 c 0.65445,-1.72133 0.0343,-2.66608 -1.21343,-1.84854 -0.86509,0.56683 -1.05171,1.07923 -0.68565,1.88263 0.4126,0.90557 1.54959,0.88516 1.89908,-0.0341 z m -17.913344,-0.75747 c 0.331017,-0.97148 0.344454,-1.38616 0.07867,-2.42801 l -0.32052,-1.25644 -0.479774,1.25627 c -0.415629,1.08831 -0.435913,1.41293 -0.151709,2.42801 0.180436,0.64445 0.360932,1.17174 0.401101,1.17174 0.04017,0 0.252672,-0.52721 0.472228,-1.17157 z m 2.812157,-2.79718 c -0.01996,-0.49278 -0.759897,1.32649 -0.753283,1.85208 0.0059,0.46932 0.117298,0.31561 0.383483,-0.52917 0.206338,-0.65484 0.372748,-1.25015 0.3698,-1.32291 z m 4.697727,-3.04156 c 0.26233,-0.45528 0.175,-0.6464 -0.63387,-1.38729 -0.63976,-0.586 -0.89607,-1.02005 -0.80591,-1.3648 0.10309,-0.39422 -0.0321,-0.52962 -0.61388,-0.61502 -0.67865,-0.0996 -0.73401,-0.0481 -0.6126,0.5699 0.0814,0.41437 -0.1426,1.29864 -0.57429,2.26689 -0.38928,0.87313 -0.81905,1.87683 -0.955054,2.23046 l -0.24728,0.64296 0.709104,-0.70911 c 0.39001,-0.39 0.78966,-0.7091 0.88811,-0.7091 0.54018,0 1.64053,1.64739 1.93254,2.8933 l 0.32984,1.40727 0.13952,-2.34872 c 0.0767,-1.2918 0.27643,-2.58633 0.44377,-2.87674 z m -14.152498,4.12013 c 0.104021,-0.0111 0.32463,-0.27343 0.490241,-0.58288 0.498901,-0.9322 -0.07174,-1.81861 -1.170764,-1.81861 -0.759288,0 -0.953365,0.12976 -1.244199,0.8319 -0.314256,0.75868 -0.293764,0.87305 0.232822,1.29946 0.317574,0.25715 0.785614,0.42769 1.040089,0.37896 0.254476,-0.0487 0.54779,-0.0977 0.651811,-0.10883 z m -1.321625,-0.87624 c -0.419681,-0.50569 0.02391,-1.05795 0.765543,-0.95309 0.425383,0.0602 0.631537,0.26203 0.631537,0.61846 0,0.63125 -0.960063,0.8612 -1.39708,0.33463 z m -1.381045,-0.31901 c 0,-0.0642 -0.119063,-0.19026 -0.264583,-0.2802 -0.145521,-0.0899 -0.264584,-0.0374 -0.264584,0.11668 0,0.15411 0.119063,0.2802 0.264584,0.2802 0.14552,0 0.264583,-0.0525 0.264583,-0.11668 z m 7.238809,-1.59493 c 0.529459,-0.3593 1.111621,-0.59602 1.293693,-0.52605 0.243783,0.0937 0.33104,-0.31945 0.33104,-1.5674 v -1.69463 l -0.79375,0.39705 c -1.105301,0.55289 -3.307292,2.73984 -3.307292,3.2847 0,0.9228 1.197415,0.97421 2.476309,0.10633 z m 4.636087,-2.01191 c 0.492078,-1.17101 1.066132,-2.30055 1.275672,-2.51009 0.33158,-0.33158 0.27452,-0.38098 -0.440167,-0.38098 -0.451631,0 -1.255122,0.18133 -1.785535,0.40295 -0.739634,0.30904 -0.891809,0.47553 -0.65296,0.71437 0.177783,0.17779 0.311427,1.08351 0.311427,2.1106 0,0.98954 0.0893,1.79761 0.198438,1.79571 0.10914,-0.002 0.601047,-0.96155 1.093125,-2.13256 z m 9.569542,-0.53446 c 0.16302,-0.3046 0.21953,-0.86003 0.1256,-1.23431 l -0.1708,-0.6805 -0.50927,0.83744 c -0.2801,0.46058 -0.64466,0.83743 -0.81014,0.83743 -0.2121,0 -0.20369,0.11709 0.0285,0.39687 0.46131,0.55586 0.98772,0.49403 1.3361,-0.15693 z m -1.34654,-0.49894 c 0.63368,-0.33913 1.12086,-1.69974 0.74367,-2.07694 -0.19339,-0.19339 -0.51266,-0.042 -1.05481,0.50014 -0.4276,0.42761 -0.97666,0.78143 -1.22013,0.78627 -0.35479,0.007 -0.31867,0.1121 0.18195,0.52917 0.72406,0.60319 0.71418,0.60128 1.34932,0.26136 z m -0.55129,-8.638733 c 0.44743,-0.982019 0.24694,-1.012286 -0.63154,-0.09534 -0.69129,0.721543 -0.71074,0.79099 -0.22162,0.79099 0.32221,0 0.66269,-0.277616 0.85316,-0.69565 z m 2.3642,25.914913 c 0.191,-0.0764 0.4192,-0.067 0.50712,0.0209 0.0879,0.0879 -0.0683,0.15045 -0.34727,0.13897 -0.30822,-0.0127 -0.37092,-0.0754 -0.15985,-0.15985 z m -3.72225,-19.80413 c 0.31857,-0.22313 0.76178,-0.66634 0.98491,-0.98491 0.22313,-0.31857 0.4057,-0.4499 0.4057,-0.29184 0,0.37321 -1.30924,1.68245 -1.68245,1.68245 -0.15806,0 -0.0267,-0.18256 0.29184,-0.4057 z m -1.78439,-0.71134 c 0.0728,-0.0684 0.54901,-0.32652 1.05833,-0.5735 0.67186,-0.32579 0.81711,-0.34477 0.52917,-0.0691 -0.21828,0.20897 -0.69453,0.46704 -1.05833,0.5735 -0.36381,0.10645 -0.60193,0.13755 -0.52917,0.0691 z m 2.31069,-1.29704 c 0.17948,-0.18082 0.39297,-0.26212 0.47443,-0.18066 0.0815,0.0815 -0.0654,0.22941 -0.32631,0.32877 -0.37709,0.14359 -0.40748,0.11319 -0.14812,-0.14811 z m -0.7728,-1.73541 c 0.191,-0.0764 0.4192,-0.067 0.50712,0.0209 0.0879,0.0879 -0.0683,0.15045 -0.34727,0.13896 -0.30822,-0.0127 -0.37092,-0.0754 -0.15985,-0.15985 z"
       id="path4672"
       inkscape:connector-curvature="0" />
    <path
       style="opacity:0;fill:#000066;fill-opacity:1;stroke:none;stroke-width:0.13498312;stroke-miterlimit:4;stroke-dasharray:none;stroke-opacity:1"
       d="m 262.44684,431.5677 c -11.49954,-2.45521 -15.08396,-3.5923 -25.85477,-8.20198 -27.15752,-11.62282 -39.02606,-20.78245 -51.99767,-40.12957 -5.67032,-8.45725 -8.21899,-13.33554 -8.21899,-15.73155 0,-1.73355 0.6876,-1.86073 2.97735,-0.55067 3.06242,1.75214 6.18542,1.31951 5.88094,-0.81469 -0.0941,-0.65949 -0.4128,-0.78602 -2.42972,-0.96457 -3.39781,-0.30079 -5.66281,-1.66164 -5.19883,-3.12353 0.11953,-0.37661 2.18192,-2.47499 4.58308,-4.66307 2.40116,-2.18807 7.09789,-6.8198 10.43718,-10.29273 14.52997,-15.11148 28.08255,-24.92288 49.00741,-35.47896 8.54584,-4.31117 19.07794,-8.8396 20.72473,-8.9109 0.62666,-0.0271 -2.97415,8.36984 -4.37903,10.21172 -0.79832,1.04667 -1.04885,1.14142 -3.36372,1.27222 -2.18421,0.12342 -2.64075,0.27506 -3.60265,1.19662 -0.83579,0.80074 -1.07559,1.31368 -0.99412,2.12642 0.0867,0.86512 -0.0782,1.1602 -0.85776,1.53433 -2.30364,1.10562 -3.23426,3.79593 -1.46653,4.2396 1.35407,0.33985 6.81785,-0.45146 7.86793,-1.13949 0.92067,-0.60325 1.42118,-0.49636 0.98447,0.21025 -0.51639,0.83554 -2.58908,1.36265 -6.34842,1.61447 -2.14661,0.14379 -3.95301,0.43247 -4.09466,0.65436 -0.38019,0.59554 -1.03346,9.48211 -0.73281,9.96857 0.1433,0.23188 1.03077,0.60495 1.97214,0.82904 0.94137,0.2241 1.35947,0.42655 0.9291,0.44988 -0.43038,0.0233 -0.87846,0.1977 -0.99575,0.38748 -0.3348,0.54171 2.60833,2.47389 4.69011,3.07908 1.77888,0.51713 1.97834,0.50744 3.5113,-0.17067 1.85601,-0.821 5.07495,-3.94472 5.40014,-5.24041 0.27127,-1.08083 0.41657,-1.07987 1.74812,0.0116 1.00241,0.82167 1.02079,0.87907 0.28528,0.89108 -0.43238,0.007 -2.03952,1.06093 -3.57143,2.34193 -1.56866,1.31173 -3.37029,2.48775 -4.12457,2.69233 -0.7366,0.19979 -1.33928,0.50526 -1.33928,0.67881 0,0.40535 2.7957,2.83298 3.81295,3.31095 1.0777,0.50637 2.37956,0.10284 3.85907,-1.19619 0.6911,-0.60679 1.25655,-0.94019 1.25655,-0.74087 0,0.39721 -1.84212,2.04617 -2.57609,2.30597 -0.65298,0.23114 0.7423,2.08462 2.05207,2.72598 0.87227,0.42713 1.1453,0.42713 1.89746,0 2.10118,-1.19319 2.91538,-4.24407 2.08703,-7.82035 -0.42884,-1.85147 0.34427,-0.61599 1.00707,1.60938 0.71274,2.393 0.31594,3.63869 -1.94818,6.116 -2.54977,2.78985 -2.87098,4.45021 -0.80219,4.14658 0.65145,-0.0956 1.70037,0.1857 2.83362,0.75996 l 1.79928,0.91177 -1.3526,2.60315 c -1.62272,3.12299 -3.30337,7.98167 -4.11246,11.88888 -1.35394,6.53836 0.5529,14.67312 5.35787,22.85714 0.88301,1.50398 1.20108,2.4137 1.06685,3.05129 -0.32914,1.56342 2.05153,3.19871 4.65673,3.19871 0.66312,0 1.30632,-0.16285 1.42933,-0.36189 0.29158,-0.4718 -1.45243,-4.28097 -1.96003,-4.28097 -0.2142,0 -0.78559,0.25956 -1.26975,0.57679 -1.1144,0.73018 -1.10593,0.47113 0.0491,-1.49974 0.51116,-0.87223 0.85151,-1.78477 0.75633,-2.02788 -0.0952,-0.24311 -1.00063,-0.73169 -2.01211,-1.08573 -2.8141,-0.98498 -4.65793,-3.88768 -6.1687,-9.71126 -1.34451,-5.18268 -0.50689,-11.8262 2.39994,-19.03502 0.6744,-1.6725 1.3271,-3.57878 1.45042,-4.23618 0.12333,-0.65739 0.35389,-1.19526 0.51236,-1.19526 0.36806,0 7.13238,7.20338 7.13238,7.59533 0,0.16141 2.14507,-0.83865 4.76681,-2.22236 2.62175,-1.38371 4.89976,-2.51583 5.06226,-2.51583 0.16249,0 -0.0624,0.38086 -0.49966,0.84635 l -0.7951,0.84635 0.82213,0.2202 c 0.45217,0.12111 1.54535,0.22633 2.42928,0.23381 0.88393,0.007 2.31026,0.17571 3.16963,0.37385 1.21358,0.27979 1.73197,0.24896 2.32143,-0.13808 0.85659,-0.56244 3.73405,-5.77641 3.38209,-6.12837 -0.12554,-0.12554 -1.46285,0.19786 -2.97179,0.71868 -1.50894,0.52082 -2.8197,0.87078 -2.91278,0.77769 -0.27365,-0.27365 8.91164,-3.46477 9.97295,-3.46477 0.18254,0 -0.0475,0.30949 -0.51125,0.68776 -0.76234,0.62184 -0.78306,0.71114 -0.21624,0.93179 0.3448,0.13423 1.80616,0.1845 3.24747,0.11171 2.20023,-0.1111 2.83007,-0.29212 3.92667,-1.12854 0.71836,-0.54792 1.3061,-1.24762 1.3061,-1.5549 0,-0.47073 -0.31807,-0.51895 -2.02027,-0.30627 -1.11116,0.13882 -2.26252,0.34537 -2.55859,0.45898 -0.34263,0.13148 -0.44741,0.0595 -0.28825,-0.19804 0.13754,-0.22254 0.84694,-0.57038 1.57645,-0.77299 1.36771,-0.37985 5.07638,-0.51624 5.07638,-0.18669 0,0.10212 -0.37822,0.78516 -0.84049,1.51786 -2.52957,4.00941 -2.55237,4.09949 -2.55237,10.08219 0,5.0201 -0.0765,5.70204 -0.8212,7.32143 -0.45165,0.98214 -1.39602,2.37574 -2.09859,3.09688 -1.13992,1.17005 -1.25138,1.44984 -1.03567,2.5997 l 0.24174,1.28853 -1.35214,-0.7247 c -0.86794,-0.46519 -2.02545,-0.7247 -3.23242,-0.7247 -2.48411,0 -2.39421,-0.55974 0.17328,-1.07883 3.5744,-0.72267 6.52569,-3.08457 6.51424,-5.21332 -0.002,-0.36968 0.3497,-1.6781 0.78152,-2.90763 l 0.78513,-2.23549 -0.72771,-0.97879 c -0.51352,-0.69069 -1.1051,-1.01104 -2.00987,-1.08835 l -1.28216,-0.10955 1.08892,-1.54486 c 0.6839,-0.97026 1.15805,-2.15826 1.2748,-3.19402 0.16756,-1.4866 0.11346,-1.64916 -0.54885,-1.64916 -1.40956,0 -5.03302,5.57921 -4.57029,7.03712 0.14336,0.4517 -0.0369,0.76105 -0.58514,1.00426 -1.04688,0.4644 -2.34071,2.43867 -2.63852,4.02614 -0.20572,1.0966 -0.10499,1.38858 0.72551,2.10294 l 0.9644,0.82954 h -0.85743 c -1.09537,0 -1.866,0.87495 -2.3592,2.67857 -0.89266,3.26441 -0.14144,6.10422 1.71287,6.47508 l 1.00532,0.20106 -0.84213,0.84213 c -0.97548,0.97548 -1.03246,1.51343 -0.33665,3.17875 0.53108,1.27104 1.47827,1.98156 2.6416,1.98156 0.38172,0 0.91335,0.26425 1.18139,0.58723 0.43394,0.52286 0.3977,0.55877 -0.33055,0.32763 -0.90864,-0.28839 -1.85506,0.28733 -1.85506,1.12846 0,1.31508 1.18524,2.90509 2.83474,3.80287 0.94942,0.51673 1.825,0.93952 1.94574,0.93952 0.12074,0 0.21952,-2.09659 0.21952,-4.65909 0,-4.4705 -0.0355,-4.69458 -0.87662,-5.53571 -0.74075,-0.74076 -0.7795,-0.87663 -0.25,-0.87663 0.82394,0 1.47423,-0.67863 1.5229,-1.58928 0.0777,-1.45432 0.60714,2.22711 0.99893,6.94642 0.22016,2.65179 0.5017,5.43784 0.62565,6.19124 l 0.22536,1.3698 -2.54276,-1.28052 c -1.39852,-0.70428 -2.95201,-1.28052 -3.4522,-1.28052 -1.17608,0 -1.87218,1.33979 -1.27544,2.45483 0.49844,0.93134 0.49077,0.93143 -1.8376,0.0217 -2.97661,-1.16297 -4.20436,-2.1306 -4.20721,-3.31583 -0.002,-1.10488 -2.01283,-3.44643 -2.95871,-3.44643 -0.9364,0 -1.52603,1.03176 -1.03707,1.81471 0.54609,0.87444 0.5668,0.87733 -2.53328,-0.35416 -1.43916,-0.57169 -3.65317,-1.2326 -4.92001,-1.46869 -1.38162,-0.25748 -2.54065,-0.69904 -2.89633,-1.10341 -1.21858,-1.38545 -2.66608,-0.37365 -1.6141,1.12826 0.4813,0.68715 0.46731,0.91366 -0.13888,2.2487 -1.31729,2.90118 -0.53624,6.54424 2.23252,10.41316 1.75608,2.45386 2.79225,4.60343 2.79066,5.78934 -10e-4,1.07146 -1.31907,3.54501 -1.69053,3.17356 -0.12364,-0.12364 -0.0346,-0.41498 0.19782,-0.64742 0.23244,-0.23243 0.42262,-0.77353 0.42262,-1.20243 0,-0.69859 -0.24931,-0.80652 -2.39315,-1.03611 -2.37038,-0.25385 -4.28151,-0.77132 -3.97621,-1.07662 0.0871,-0.0871 1.63694,0.0238 3.44419,0.24629 1.80724,0.22252 3.38786,0.30262 3.51248,0.17799 0.26442,-0.26442 -1.21777,-2.34446 -3.04605,-4.2747 -1.6121,-1.702 -3.87686,-2.40687 -7.82649,-2.43586 -3.18408,-0.0234 -4.18046,0.3806 -3.86971,1.56893 0.15555,0.59483 0.0383,0.66156 -0.85043,0.48382 -2.50915,-0.50182 -4.02863,1.1091 -2.58392,2.73942 0.80182,0.90484 0.52516,0.79015 -3.28868,-1.36334 -5.78006,-3.26372 -7.13185,-5.34405 -10.9073,-16.78572 -2.23353,-6.76881 -2.68758,-7.8258 -3.22025,-7.49658 -0.15496,0.0958 -0.61424,1.26882 -1.02064,2.6068 -0.84898,2.79508 -2.41617,5.15571 -3.94906,5.9484 -1.19339,0.61712 -3.8074,0.72212 -5.16143,0.20732 -1.96366,-0.74658 -3.8846,-2.98736 -5.48129,-6.39393 -0.8616,-1.83826 -1.67001,-3.23882 -1.79645,-3.11238 -0.38712,0.38712 -0.0937,2.75858 0.65281,5.2757 1.06607,3.59469 3.15057,8.40266 6.34569,14.6365 2.12403,4.14409 3.03148,6.34975 3.4897,8.48214 0.34059,1.58496 0.745,2.88175 0.89868,2.88175 0.15369,0 2.04521,-0.72322 4.20338,-1.60714 4.2747,-1.7508 4.32413,-1.76527 4.32413,-1.26586 0,0.1877 0.40178,0.93334 0.89285,1.65698 0.49108,0.72363 0.89286,1.7663 0.89286,2.31703 0,0.62421 0.2934,1.20685 0.77899,1.54697 0.73387,0.51402 0.74422,0.58406 0.17858,1.20909 -1.73814,1.92061 0.51816,3.68843 3.72557,2.91898 2.16343,-0.519 4.29115,-2.03152 5.04372,-3.58541 0.47567,-0.98216 0.50033,-1.37128 0.14248,-2.24828 -0.80056,-1.96196 -1.40989,-1.98371 -3.40083,-0.12142 -0.98728,0.92348 -2.00283,1.67288 -2.25678,1.66534 -0.25395,-0.008 0.30297,-0.69058 1.23761,-1.51786 0.93463,-0.82727 1.69802,-1.78057 1.69643,-2.11844 -0.001,-0.33787 -0.47724,-0.965 -1.05698,-1.39362 -1.0833,-0.80091 -1.67617,-1.74208 -1.0974,-1.74208 0.17937,0 1.50863,1.00447 2.95393,2.23215 1.44528,1.22768 2.97763,2.47321 3.40521,2.76785 0.69299,0.47755 0.74036,0.69084 0.43625,1.96429 -0.90597,3.79361 -0.13364,15.90188 1.27742,20.02685 0.4754,1.38977 0.86437,2.6353 0.86437,2.76786 0,0.27776 -0.009,0.27704 -2.14285,-0.17862 z m 0.29727,-2.38318 c 0.072,-0.50879 -0.20296,-1.18093 -0.69929,-1.70924 -0.51533,-0.54855 -0.89008,-1.49366 -1.01281,-2.55434 -0.18959,-1.6384 -0.22622,-1.68217 -1.36414,-1.62988 -1.5053,0.0692 -2.22103,0.6811 -2.22103,1.89893 0,1.13376 0.87652,2.03831 2.14285,2.21137 0.63468,0.0867 0.87493,0.32423 0.83085,0.8213 -0.16664,1.87909 2.06306,2.80209 2.32357,0.96186 z m -3.57101,-6.73175 c 0.93596,-0.58512 1.84516,-2.48064 1.84516,-3.84683 0,-0.6733 -0.18685,-0.90433 -0.73144,-0.90433 -0.83309,0 -4.11283,2.01881 -5.11544,3.14877 -1.7196,1.93801 1.44065,3.20346 4.00172,1.60239 z m -2.93957,-3.84926 c 2.88228,-0.85594 4.77547,-3.28982 4.78274,-6.14868 0.003,-1.24512 -0.55107,-1.27439 -2.41492,-0.12755 -0.95819,0.58958 -2.61441,1.26261 -3.68048,1.49562 -1.06608,0.23301 -2.11746,0.63951 -2.3364,0.90333 -0.47119,0.56776 -0.10435,3.04768 0.57123,3.86171 0.55788,0.6722 0.86156,0.67373 3.07783,0.0156 z m -19.14384,-10.39635 c 0,-0.1148 -0.70778,-1.11926 -1.57286,-2.23214 -2.84323,-3.65768 -9.9885,-19.3083 -10.47661,-22.94739 -0.20099,-1.49849 -0.86331,-2.30386 -1.64726,-2.00302 -0.32986,0.12658 -0.57486,1.14391 -0.74489,3.09301 -0.46608,5.34306 -1.90859,13.83982 -2.61733,15.41675 -0.38564,0.85805 -1.12478,1.94972 -1.64253,2.42592 -1.88733,1.73587 -1.35926,2.26778 4.54073,4.57384 2.5507,0.99697 4.01251,1.33156 6.66075,1.52458 4.67328,0.34063 7.5,0.39658 7.5,0.14845 z m -23.59323,-7.73769 c 0.17601,-0.44197 0.49971,-2.40768 0.71934,-4.36827 0.21962,-1.96058 0.95609,-6.11036 1.6366,-9.22173 1.48983,-6.81167 1.52372,-7.38984 0.43372,-7.39862 -0.44196,-0.004 -1.64732,-0.4857 -2.67857,-1.07143 -1.03125,-0.58572 -2.71875,-1.54418 -3.75,-2.12991 -3.43352,-1.95017 -6.14817,-1.14459 -7.04697,2.09119 -0.47719,1.71797 -0.46074,5.74665 0.032,7.83347 0.97616,4.13426 5.17335,11.15665 8.31887,13.91846 1.5528,1.36337 1.90911,1.41629 2.33502,0.34684 z m 52.35108,-3.1026 c 1.27247,-0.57697 2.31358,-1.26926 2.31358,-1.53842 0,-0.26915 -0.64614,-0.77445 -1.43587,-1.12288 -2.50321,-1.10442 -7.20953,-7.79367 -9.30955,-13.23201 -2.33984,-6.05941 -1.49303,-13.95314 2.58971,-24.1403 1.46972,-3.66722 1.77225,-4.74019 1.40118,-4.96952 -0.66428,-0.41054 -5.25248,-0.82481 -6.1124,-0.55188 -1.82362,0.5788 -2.57443,4.66633 -2.55785,13.92546 0.0198,11.08671 0.4339,12.81412 5.60213,23.37163 1.85902,3.79755 3.48144,7.44516 3.60538,8.10579 0.28427,1.51528 0.84878,1.53728 3.90369,0.15213 z m 8.0717,-17.54888 c 0.13316,-0.47651 0.25813,-2.97739 0.27771,-5.55751 0.0253,-3.33911 0.20888,-5.22764 0.63681,-6.55267 0.43229,-1.3385 0.49772,-2.02737 0.23287,-2.45173 -0.48991,-0.78498 -2.85164,-1.37985 -3.60116,-0.90707 -1.61069,1.016 -2.45173,8.51858 -1.34822,12.02692 0.65435,2.08034 2.49431,4.66363 3.16295,4.44075 0.21831,-0.0728 0.50588,-0.52218 0.63904,-0.99869 z m -34.27248,-0.004 c 2.57999,-1.38077 2.93586,-9.43153 0.61776,-13.97538 -0.95812,-1.87807 -2.77338,-3.85122 -3.54305,-3.85122 -0.96544,0 -2.0347,1.58081 -2.51205,3.71387 -0.65278,2.9169 -0.29112,8.57391 0.68727,10.75042 1.43254,3.18678 3.00211,4.29779 4.75007,3.36231 z m 46.99797,-3.34323 c 1.27463,-1.07252 2.23068,-3.86047 2.23068,-6.5049 0,-1.58304 -0.16112,-2.10062 -0.87663,-2.81613 -0.48214,-0.48214 -1.23497,-0.87662 -1.67295,-0.87662 -1.32148,0 -3.75339,1.38154 -5.14672,2.92379 -1.23878,1.37118 -1.30405,1.56295 -1.15281,3.3868 0.33395,4.02699 3.93717,6.1432 6.61843,3.88707 z m -66.62444,-3.96784 c 1.4164,-3.96779 1.48076,-6.49146 0.28866,-11.3191 -0.47291,-1.91518 -0.95814,-3.48214 -1.07827,-3.48214 -0.50605,0 -3.23203,8.46542 -3.22245,10.00718 0.009,1.50773 0.89886,5.3124 1.78988,7.65595 0.52726,1.3868 0.85719,0.96189 2.22218,-2.86189 z m 26.85569,-9.5527 c 0.29799,-5.76497 1.06175,-11.24649 1.85728,-13.32977 0.71372,-1.86905 0.32811,-2.70372 -2.53642,-5.4902 -2.4245,-2.35843 -3.03572,-3.4307 -3.03572,-5.32564 0,-1.37355 -0.0599,-1.44868 -1.45579,-1.82455 -0.80069,-0.2156 -1.88551,-0.34233 -2.41072,-0.28162 -0.93168,0.1077 -0.96021,0.18425 -1.17249,3.1461 -0.24001,3.34882 -0.59697,4.44901 -4.03463,12.43513 -1.29522,3.00896 -2.35494,5.65471 -2.35494,5.87943 0,0.22472 0.76339,-0.31134 1.69643,-1.19125 3.71009,-3.49886 3.92759,-3.65197 4.85646,-3.41884 1.09683,0.27528 3.78358,3.78232 5.18836,6.77241 0.5689,1.21093 1.40944,3.78385 1.86786,5.7176 1.00166,4.22536 1.17421,3.878 1.53432,-3.0888 z m -18.04493,5.19789 c 1.01553,-2.49698 2.16728,-7.03779 1.86242,-7.34265 -0.61087,-0.61087 -2.88949,5.10018 -2.88949,7.2421 0,1.34924 0.49934,1.39812 1.02707,0.10055 z m -33.46971,-2.98756 c 0.8469,-0.43835 1.98453,-2.41627 2.26731,-3.94201 0.66962,-3.61285 -3.56112,-6.3284 -7.64272,-4.90555 -1.19736,0.41741 -2.56384,2.57899 -3.04854,4.82236 -0.50144,2.32092 3.13076,4.97811 6.22373,4.55304 0.88393,-0.12147 1.87403,-0.35901 2.20022,-0.52784 z m -10.58341,-4.26023 c 0.32269,-0.52211 -0.49907,-1.41293 -1.3034,-1.41293 -0.65602,0 -0.9452,1.03488 -0.43246,1.54762 0.36771,0.36771 1.47864,0.2815 1.73586,-0.13469 z m 25.60442,-5.01816 c 0.84082,-0.42557 1.98675,-1.09654 2.5465,-1.49106 0.55975,-0.39452 1.92582,-0.99788 3.03571,-1.34079 1.71929,-0.5312 2.05138,-0.77496 2.24359,-1.64677 0.27644,-1.25388 0.38421,-11.20186 0.12136,-11.20186 -0.10382,0 -1.13948,0.47993 -2.30148,1.0665 -3.48301,1.75822 -8.86991,6.41642 -11.81469,10.21649 -1.5133,1.95283 -1.88804,3.94656 -0.89648,4.76949 1.42196,1.18012 4.29799,1.0287 7.06549,-0.372 z m 17.48256,-4.51977 c 4.71898,-10.04967 6.11097,-12.82721 6.79235,-13.55325 1.09861,-1.17062 0.62183,-1.89317 -1.24923,-1.89317 -3.12215,0 -9.64321,2.15621 -10.09693,3.33859 -0.0948,0.24704 0.0905,1.07829 0.41178,1.84722 0.40408,0.96711 0.67898,3.25001 0.89182,7.40614 0.42415,8.28265 0.6204,8.455 3.25021,2.85447 z m 29.15626,-38.66942 c 1.22855,-0.74903 2.54672,-3.099 2.56068,-4.56505 0.008,-0.82246 0.006,-0.82275 -1.11254,-0.17857 -1.68809,0.97211 -4.77004,4.77795 -4.17477,5.15534 0.74476,0.47217 1.45205,0.36537 2.72663,-0.41172 z"
       id="path4674"
       inkscape:connector-curvature="0"
       transform="scale(0.26458333)" />
    <path
       style="opacity:0;fill:#000066;fill-opacity:1;stroke:none;stroke-width:0.13498312;stroke-miterlimit:4;stroke-dasharray:none;stroke-opacity:1"
       d="m 262.44684,431.5677 c -11.49954,-2.45521 -15.08396,-3.5923 -25.85477,-8.20198 -27.15752,-11.62282 -39.02606,-20.78245 -51.99767,-40.12957 -5.67032,-8.45725 -8.21899,-13.33554 -8.21899,-15.73155 0,-1.73355 0.6876,-1.86073 2.97735,-0.55067 3.06242,1.75214 6.18542,1.31951 5.88094,-0.81469 -0.0941,-0.65949 -0.4128,-0.78602 -2.42972,-0.96457 -3.39781,-0.30079 -5.66281,-1.66164 -5.19883,-3.12353 0.11953,-0.37661 2.18192,-2.47499 4.58308,-4.66307 2.40116,-2.18807 7.09789,-6.8198 10.43718,-10.29273 14.52997,-15.11148 28.08255,-24.92288 49.00741,-35.47896 8.54584,-4.31117 19.07794,-8.8396 20.72473,-8.9109 0.62666,-0.0271 -2.97415,8.36984 -4.37903,10.21172 -0.79832,1.04667 -1.04885,1.14142 -3.36372,1.27222 -2.18421,0.12342 -2.64075,0.27506 -3.60265,1.19662 -0.83579,0.80074 -1.07559,1.31368 -0.99412,2.12642 0.0867,0.86512 -0.0782,1.1602 -0.85776,1.53433 -2.30364,1.10562 -3.23426,3.79593 -1.46653,4.2396 1.35407,0.33985 6.81785,-0.45146 7.86793,-1.13949 0.92067,-0.60325 1.42118,-0.49636 0.98447,0.21025 -0.51639,0.83554 -2.58908,1.36265 -6.34842,1.61447 -2.14661,0.14379 -3.95301,0.43247 -4.09466,0.65436 -0.38019,0.59554 -1.03346,9.48211 -0.73281,9.96857 0.1433,0.23188 1.03077,0.60495 1.97214,0.82904 0.94137,0.2241 1.35947,0.42655 0.9291,0.44988 -0.43038,0.0233 -0.87846,0.1977 -0.99575,0.38748 -0.3348,0.54171 2.60833,2.47389 4.69011,3.07908 1.77888,0.51713 1.97834,0.50744 3.5113,-0.17067 1.85601,-0.821 5.07495,-3.94472 5.40014,-5.24041 0.27127,-1.08083 0.41657,-1.07987 1.74812,0.0116 1.00241,0.82167 1.02079,0.87907 0.28528,0.89108 -0.43238,0.007 -2.03952,1.06093 -3.57143,2.34193 -1.56866,1.31173 -3.37029,2.48775 -4.12457,2.69233 -0.7366,0.19979 -1.33928,0.50526 -1.33928,0.67881 0,0.40535 2.7957,2.83298 3.81295,3.31095 1.0777,0.50637 2.37956,0.10284 3.85907,-1.19619 0.6911,-0.60679 1.25655,-0.94019 1.25655,-0.74087 0,0.39721 -1.84212,2.04617 -2.57609,2.30597 -0.65298,0.23114 0.7423,2.08462 2.05207,2.72598 0.87227,0.42713 1.1453,0.42713 1.89746,0 2.10118,-1.19319 2.91538,-4.24407 2.08703,-7.82035 -0.42884,-1.85147 0.34427,-0.61599 1.00707,1.60938 0.71274,2.393 0.31594,3.63869 -1.94818,6.116 -2.54977,2.78985 -2.87098,4.45021 -0.80219,4.14658 0.65145,-0.0956 1.70037,0.1857 2.83362,0.75996 l 1.79928,0.91177 -1.3526,2.60315 c -1.62272,3.12299 -3.30337,7.98167 -4.11246,11.88888 -1.35394,6.53836 0.5529,14.67312 5.35787,22.85714 0.88301,1.50398 1.20108,2.4137 1.06685,3.05129 -0.32914,1.56342 2.05153,3.19871 4.65673,3.19871 0.66312,0 1.30632,-0.16285 1.42933,-0.36189 0.29158,-0.4718 -1.45243,-4.28097 -1.96003,-4.28097 -0.2142,0 -0.78559,0.25956 -1.26975,0.57679 -1.1144,0.73018 -1.10593,0.47113 0.0491,-1.49974 0.51116,-0.87223 0.85151,-1.78477 0.75633,-2.02788 -0.0952,-0.24311 -1.00063,-0.73169 -2.01211,-1.08573 -2.8141,-0.98498 -4.65793,-3.88768 -6.1687,-9.71126 -1.34451,-5.18268 -0.50689,-11.8262 2.39994,-19.03502 0.6744,-1.6725 1.3271,-3.57878 1.45042,-4.23618 0.12333,-0.65739 0.35389,-1.19526 0.51236,-1.19526 0.36806,0 7.13238,7.20338 7.13238,7.59533 0,0.16141 2.14507,-0.83865 4.76681,-2.22236 2.62175,-1.38371 4.89976,-2.51583 5.06226,-2.51583 0.16249,0 -0.0624,0.38086 -0.49966,0.84635 l -0.7951,0.84635 0.82213,0.2202 c 0.45217,0.12111 1.54535,0.22633 2.42928,0.23381 0.88393,0.007 2.31026,0.17571 3.16963,0.37385 1.21358,0.27979 1.73197,0.24896 2.32143,-0.13808 0.85659,-0.56244 3.73405,-5.77641 3.38209,-6.12837 -0.12554,-0.12554 -1.46285,0.19786 -2.97179,0.71868 -1.50894,0.52082 -2.8197,0.87078 -2.91278,0.77769 -0.27365,-0.27365 8.91164,-3.46477 9.97295,-3.46477 0.18254,0 -0.0475,0.30949 -0.51125,0.68776 -0.76234,0.62184 -0.78306,0.71114 -0.21624,0.93179 0.3448,0.13423 1.80616,0.1845 3.24747,0.11171 2.20023,-0.1111 2.83007,-0.29212 3.92667,-1.12854 0.71836,-0.54792 1.3061,-1.24762 1.3061,-1.5549 0,-0.47073 -0.31807,-0.51895 -2.02027,-0.30627 -1.11116,0.13882 -2.26252,0.34537 -2.55859,0.45898 -0.34263,0.13148 -0.44741,0.0595 -0.28825,-0.19804 0.13754,-0.22254 0.84694,-0.57038 1.57645,-0.77299 1.36771,-0.37985 5.07638,-0.51624 5.07638,-0.18669 0,0.10212 -0.37822,0.78516 -0.84049,1.51786 -2.52957,4.00941 -2.55237,4.09949 -2.55237,10.08219 0,5.0201 -0.0765,5.70204 -0.8212,7.32143 -0.45165,0.98214 -1.39602,2.37574 -2.09859,3.09688 -1.13992,1.17005 -1.25138,1.44984 -1.03567,2.5997 l 0.24174,1.28853 -1.35214,-0.7247 c -0.86794,-0.46519 -2.02545,-0.7247 -3.23242,-0.7247 -2.48411,0 -2.39421,-0.55974 0.17328,-1.07883 3.5744,-0.72267 6.52569,-3.08457 6.51424,-5.21332 -0.002,-0.36968 0.3497,-1.6781 0.78152,-2.90763 l 0.78513,-2.23549 -0.72771,-0.97879 c -0.51352,-0.69069 -1.1051,-1.01104 -2.00987,-1.08835 l -1.28216,-0.10955 1.08892,-1.54486 c 0.6839,-0.97026 1.15805,-2.15826 1.2748,-3.19402 0.16756,-1.4866 0.11346,-1.64916 -0.54885,-1.64916 -1.40956,0 -5.03302,5.57921 -4.57029,7.03712 0.14336,0.4517 -0.0369,0.76105 -0.58514,1.00426 -1.04688,0.4644 -2.34071,2.43867 -2.63852,4.02614 -0.20572,1.0966 -0.10499,1.38858 0.72551,2.10294 l 0.9644,0.82954 h -0.85743 c -1.09537,0 -1.866,0.87495 -2.3592,2.67857 -0.89266,3.26441 -0.14144,6.10422 1.71287,6.47508 l 1.00532,0.20106 -0.84213,0.84213 c -0.97548,0.97548 -1.03246,1.51343 -0.33665,3.17875 0.53108,1.27104 1.47827,1.98156 2.6416,1.98156 0.38172,0 0.91335,0.26425 1.18139,0.58723 0.43394,0.52286 0.3977,0.55877 -0.33055,0.32763 -0.90864,-0.28839 -1.85506,0.28733 -1.85506,1.12846 0,1.31508 1.18524,2.90509 2.83474,3.80287 0.94942,0.51673 1.825,0.93952 1.94574,0.93952 0.12074,0 0.21952,-2.09659 0.21952,-4.65909 0,-4.4705 -0.0355,-4.69458 -0.87662,-5.53571 -0.74075,-0.74076 -0.7795,-0.87663 -0.25,-0.87663 0.82394,0 1.47423,-0.67863 1.5229,-1.58928 0.0777,-1.45432 0.60714,2.22711 0.99893,6.94642 0.22016,2.65179 0.5017,5.43784 0.62565,6.19124 l 0.22536,1.3698 -2.54276,-1.28052 c -1.39852,-0.70428 -2.95201,-1.28052 -3.4522,-1.28052 -1.17608,0 -1.87218,1.33979 -1.27544,2.45483 0.49844,0.93134 0.49077,0.93143 -1.8376,0.0217 -2.97661,-1.16297 -4.20436,-2.1306 -4.20721,-3.31583 -0.002,-1.10488 -2.01283,-3.44643 -2.95871,-3.44643 -0.9364,0 -1.52603,1.03176 -1.03707,1.81471 0.54609,0.87444 0.5668,0.87733 -2.53328,-0.35416 -1.43916,-0.57169 -3.65317,-1.2326 -4.92001,-1.46869 -1.38162,-0.25748 -2.54065,-0.69904 -2.89633,-1.10341 -1.21858,-1.38545 -2.66608,-0.37365 -1.6141,1.12826 0.4813,0.68715 0.46731,0.91366 -0.13888,2.2487 -1.31729,2.90118 -0.53624,6.54424 2.23252,10.41316 1.75608,2.45386 2.79225,4.60343 2.79066,5.78934 -10e-4,1.07146 -1.31907,3.54501 -1.69053,3.17356 -0.12364,-0.12364 -0.0346,-0.41498 0.19782,-0.64742 0.23244,-0.23243 0.42262,-0.77353 0.42262,-1.20243 0,-0.69859 -0.24931,-0.80652 -2.39315,-1.03611 -2.37038,-0.25385 -4.28151,-0.77132 -3.97621,-1.07662 0.0871,-0.0871 1.63694,0.0238 3.44419,0.24629 1.80724,0.22252 3.38786,0.30262 3.51248,0.17799 0.26442,-0.26442 -1.21777,-2.34446 -3.04605,-4.2747 -1.6121,-1.702 -3.87686,-2.40687 -7.82649,-2.43586 -3.18408,-0.0234 -4.18046,0.3806 -3.86971,1.56893 0.15555,0.59483 0.0383,0.66156 -0.85043,0.48382 -2.50915,-0.50182 -4.02863,1.1091 -2.58392,2.73942 0.80182,0.90484 0.52516,0.79015 -3.28868,-1.36334 -5.78006,-3.26372 -7.13185,-5.34405 -10.9073,-16.78572 -2.23353,-6.76881 -2.68758,-7.8258 -3.22025,-7.49658 -0.15496,0.0958 -0.61424,1.26882 -1.02064,2.6068 -0.84898,2.79508 -2.41617,5.15571 -3.94906,5.9484 -1.19339,0.61712 -3.8074,0.72212 -5.16143,0.20732 -1.96366,-0.74658 -3.8846,-2.98736 -5.48129,-6.39393 -0.8616,-1.83826 -1.67001,-3.23882 -1.79645,-3.11238 -0.38712,0.38712 -0.0937,2.75858 0.65281,5.2757 1.06607,3.59469 3.15057,8.40266 6.34569,14.6365 2.12403,4.14409 3.03148,6.34975 3.4897,8.48214 0.34059,1.58496 0.745,2.88175 0.89868,2.88175 0.15369,0 2.04521,-0.72322 4.20338,-1.60714 4.2747,-1.7508 4.32413,-1.76527 4.32413,-1.26586 0,0.1877 0.40178,0.93334 0.89285,1.65698 0.49108,0.72363 0.89286,1.7663 0.89286,2.31703 0,0.62421 0.2934,1.20685 0.77899,1.54697 0.73387,0.51402 0.74422,0.58406 0.17858,1.20909 -1.73814,1.92061 0.51816,3.68843 3.72557,2.91898 2.16343,-0.519 4.29115,-2.03152 5.04372,-3.58541 0.47567,-0.98216 0.50033,-1.37128 0.14248,-2.24828 -0.80056,-1.96196 -1.40989,-1.98371 -3.40083,-0.12142 -0.98728,0.92348 -2.00283,1.67288 -2.25678,1.66534 -0.25395,-0.008 0.30297,-0.69058 1.23761,-1.51786 0.93463,-0.82727 1.69802,-1.78057 1.69643,-2.11844 -0.001,-0.33787 -0.47724,-0.965 -1.05698,-1.39362 -1.0833,-0.80091 -1.67617,-1.74208 -1.0974,-1.74208 0.17937,0 1.50863,1.00447 2.95393,2.23215 1.44528,1.22768 2.97763,2.47321 3.40521,2.76785 0.69299,0.47755 0.74036,0.69084 0.43625,1.96429 -0.90597,3.79361 -0.13364,15.90188 1.27742,20.02685 0.4754,1.38977 0.86437,2.6353 0.86437,2.76786 0,0.27776 -0.009,0.27704 -2.14285,-0.17862 z m 0.29727,-2.38318 c 0.072,-0.50879 -0.20296,-1.18093 -0.69929,-1.70924 -0.51533,-0.54855 -0.89008,-1.49366 -1.01281,-2.55434 -0.18959,-1.6384 -0.22622,-1.68217 -1.36414,-1.62988 -1.5053,0.0692 -2.22103,0.6811 -2.22103,1.89893 0,1.13376 0.87652,2.03831 2.14285,2.21137 0.63468,0.0867 0.87493,0.32423 0.83085,0.8213 -0.16664,1.87909 2.06306,2.80209 2.32357,0.96186 z m -3.57101,-6.73175 c 0.93596,-0.58512 1.84516,-2.48064 1.84516,-3.84683 0,-0.6733 -0.18685,-0.90433 -0.73144,-0.90433 -0.83309,0 -4.11283,2.01881 -5.11544,3.14877 -1.7196,1.93801 1.44065,3.20346 4.00172,1.60239 z m -2.93957,-3.84926 c 2.88228,-0.85594 4.77547,-3.28982 4.78274,-6.14868 0.003,-1.24512 -0.55107,-1.27439 -2.41492,-0.12755 -0.95819,0.58958 -2.61441,1.26261 -3.68048,1.49562 -1.06608,0.23301 -2.11746,0.63951 -2.3364,0.90333 -0.47119,0.56776 -0.10435,3.04768 0.57123,3.86171 0.55788,0.6722 0.86156,0.67373 3.07783,0.0156 z m -19.14384,-10.39635 c 0,-0.1148 -0.70778,-1.11926 -1.57286,-2.23214 -2.84323,-3.65768 -9.9885,-19.3083 -10.47661,-22.94739 -0.20099,-1.49849 -0.86331,-2.30386 -1.64726,-2.00302 -0.32986,0.12658 -0.57486,1.14391 -0.74489,3.09301 -0.46608,5.34306 -1.90859,13.83982 -2.61733,15.41675 -0.38564,0.85805 -1.12478,1.94972 -1.64253,2.42592 -1.88733,1.73587 -1.35926,2.26778 4.54073,4.57384 2.5507,0.99697 4.01251,1.33156 6.66075,1.52458 4.67328,0.34063 7.5,0.39658 7.5,0.14845 z m -23.59323,-7.73769 c 0.17601,-0.44197 0.49971,-2.40768 0.71934,-4.36827 0.21962,-1.96058 0.95609,-6.11036 1.6366,-9.22173 1.48983,-6.81167 1.52372,-7.38984 0.43372,-7.39862 -0.44196,-0.004 -1.64732,-0.4857 -2.67857,-1.07143 -1.03125,-0.58572 -2.71875,-1.54418 -3.75,-2.12991 -3.43352,-1.95017 -6.14817,-1.14459 -7.04697,2.09119 -0.47719,1.71797 -0.46074,5.74665 0.032,7.83347 0.97616,4.13426 5.17335,11.15665 8.31887,13.91846 1.5528,1.36337 1.90911,1.41629 2.33502,0.34684 z m 52.35108,-3.1026 c 1.27247,-0.57697 2.31358,-1.26926 2.31358,-1.53842 0,-0.26915 -0.64614,-0.77445 -1.43587,-1.12288 -2.50321,-1.10442 -7.20953,-7.79367 -9.30955,-13.23201 -2.33984,-6.05941 -1.49303,-13.95314 2.58971,-24.1403 1.46972,-3.66722 1.77225,-4.74019 1.40118,-4.96952 -0.66428,-0.41054 -5.25248,-0.82481 -6.1124,-0.55188 -1.82362,0.5788 -2.57443,4.66633 -2.55785,13.92546 0.0198,11.08671 0.4339,12.81412 5.60213,23.37163 1.85902,3.79755 3.48144,7.44516 3.60538,8.10579 0.28427,1.51528 0.84878,1.53728 3.90369,0.15213 z m 8.0717,-17.54888 c 0.13316,-0.47651 0.25813,-2.97739 0.27771,-5.55751 0.0253,-3.33911 0.20888,-5.22764 0.63681,-6.55267 0.43229,-1.3385 0.49772,-2.02737 0.23287,-2.45173 -0.48991,-0.78498 -2.85164,-1.37985 -3.60116,-0.90707 -1.61069,1.016 -2.45173,8.51858 -1.34822,12.02692 0.65435,2.08034 2.49431,4.66363 3.16295,4.44075 0.21831,-0.0728 0.50588,-0.52218 0.63904,-0.99869 z m -34.27248,-0.004 c 2.57999,-1.38077 2.93586,-9.43153 0.61776,-13.97538 -0.95812,-1.87807 -2.77338,-3.85122 -3.54305,-3.85122 -0.96544,0 -2.0347,1.58081 -2.51205,3.71387 -0.65278,2.9169 -0.29112,8.57391 0.68727,10.75042 1.43254,3.18678 3.00211,4.29779 4.75007,3.36231 z m 46.99797,-3.34323 c 1.27463,-1.07252 2.23068,-3.86047 2.23068,-6.5049 0,-1.58304 -0.16112,-2.10062 -0.87663,-2.81613 -0.48214,-0.48214 -1.23497,-0.87662 -1.67295,-0.87662 -1.32148,0 -3.75339,1.38154 -5.14672,2.92379 -1.23878,1.37118 -1.30405,1.56295 -1.15281,3.3868 0.33395,4.02699 3.93717,6.1432 6.61843,3.88707 z m -66.62444,-3.96784 c 1.4164,-3.96779 1.48076,-6.49146 0.28866,-11.3191 -0.47291,-1.91518 -0.95814,-3.48214 -1.07827,-3.48214 -0.50605,0 -3.23203,8.46542 -3.22245,10.00718 0.009,1.50773 0.89886,5.3124 1.78988,7.65595 0.52726,1.3868 0.85719,0.96189 2.22218,-2.86189 z m 26.85569,-9.5527 c 0.29799,-5.76497 1.06175,-11.24649 1.85728,-13.32977 0.71372,-1.86905 0.32811,-2.70372 -2.53642,-5.4902 -2.4245,-2.35843 -3.03572,-3.4307 -3.03572,-5.32564 0,-1.37355 -0.0599,-1.44868 -1.45579,-1.82455 -0.80069,-0.2156 -1.88551,-0.34233 -2.41072,-0.28162 -0.93168,0.1077 -0.96021,0.18425 -1.17249,3.1461 -0.24001,3.34882 -0.59697,4.44901 -4.03463,12.43513 -1.29522,3.00896 -2.35494,5.65471 -2.35494,5.87943 0,0.22472 0.76339,-0.31134 1.69643,-1.19125 3.71009,-3.49886 3.92759,-3.65197 4.85646,-3.41884 1.09683,0.27528 3.78358,3.78232 5.18836,6.77241 0.5689,1.21093 1.40944,3.78385 1.86786,5.7176 1.00166,4.22536 1.17421,3.878 1.53432,-3.0888 z m -18.04493,5.19789 c 1.01553,-2.49698 2.16728,-7.03779 1.86242,-7.34265 -0.61087,-0.61087 -2.88949,5.10018 -2.88949,7.2421 0,1.34924 0.49934,1.39812 1.02707,0.10055 z m -33.46971,-2.98756 c 0.8469,-0.43835 1.98453,-2.41627 2.26731,-3.94201 0.66962,-3.61285 -3.56112,-6.3284 -7.64272,-4.90555 -1.19736,0.41741 -2.56384,2.57899 -3.04854,4.82236 -0.50144,2.32092 3.13076,4.97811 6.22373,4.55304 0.88393,-0.12147 1.87403,-0.35901 2.20022,-0.52784 z m -10.58341,-4.26023 c 0.32269,-0.52211 -0.49907,-1.41293 -1.3034,-1.41293 -0.65602,0 -0.9452,1.03488 -0.43246,1.54762 0.36771,0.36771 1.47864,0.2815 1.73586,-0.13469 z m 25.60442,-5.01816 c 0.84082,-0.42557 1.98675,-1.09654 2.5465,-1.49106 0.55975,-0.39452 1.92582,-0.99788 3.03571,-1.34079 1.71929,-0.5312 2.05138,-0.77496 2.24359,-1.64677 0.27644,-1.25388 0.38421,-11.20186 0.12136,-11.20186 -0.10382,0 -1.13948,0.47993 -2.30148,1.0665 -3.48301,1.75822 -8.86991,6.41642 -11.81469,10.21649 -1.5133,1.95283 -1.88804,3.94656 -0.89648,4.76949 1.42196,1.18012 4.29799,1.0287 7.06549,-0.372 z m 17.48256,-4.51977 c 4.71898,-10.04967 6.11097,-12.82721 6.79235,-13.55325 1.09861,-1.17062 0.62183,-1.89317 -1.24923,-1.89317 -3.12215,0 -9.64321,2.15621 -10.09693,3.33859 -0.0948,0.24704 0.0905,1.07829 0.41178,1.84722 0.40408,0.96711 0.67898,3.25001 0.89182,7.40614 0.42415,8.28265 0.6204,8.455 3.25021,2.85447 z m 29.15626,-38.66942 c 1.22855,-0.74903 2.54672,-3.099 2.56068,-4.56505 0.008,-0.82246 0.006,-0.82275 -1.11254,-0.17857 -1.68809,0.97211 -4.77004,4.77795 -4.17477,5.15534 0.74476,0.47217 1.45205,0.36537 2.72663,-0.41172 z"
       id="path4676"
       inkscape:connector-curvature="0"
       transform="scale(0.26458333)" />
  </g>
</svg>
